<?xml version="1.0" encoding="utf-8"?>
<!-- Generator: Adobe Illustrator 16.0.0, SVG Export Plug-In . SVG Version: 6.00 Build 0)  -->
<!DOCTYPE svg PUBLIC "-//W3C//DTD SVG 1.1//EN" "http://www.w3.org/Graphics/SVG/1.1/DTD/svg11.dtd">
<svg version="1.1" id="Layer_1" xmlns="http://www.w3.org/2000/svg" xmlns:xlink="http://www.w3.org/1999/xlink" x="0px" y="0px"
	 width="110px" height="35px" viewBox="0 0 551.897 175.402" enable-background="new 0 0 551.897 175.402"
	 xml:space="preserve">
<linearGradient id="SVGID_1_" gradientUnits="userSpaceOnUse" x1="15.5674" y1="88.7847" x2="538.002" y2="88.7847">
	<stop  offset="0" style="stop-color:#6FCCDD"/>
	<stop  offset="1" style="stop-color:#8353A1"/>
</linearGradient>
<path fill="url(#SVGID_1_)" d="
	c-1.19,2.324-2.805,4.42-4.845,6.29s-4.479,3.43-7.31,4.675c-2.834,1.249-5.895,1.87-9.18,1.87c-3.289,0-6.349-0.536-9.18-1.615
	c-2.834-1.076-5.299-2.775-7.395-5.1c-2.098-2.322-3.74-5.24-4.93-8.755c-1.19-3.512-1.785-7.706-1.785-12.58h14.96v2.38
	c1.076,0.738,2.465,1.105,4.165,1.105c2.266,0,4.021-0.736,5.27-2.211c1.246-1.471,1.87-2.831,1.87-4.08
	c0-1.02-0.425-2.295-1.275-3.825c-0.85-1.53-1.729-2.805-2.635-3.825l-19.89-26.86c-2.154-2.72-3.798-5.496-4.93-8.33
	c-1.134-2.832-1.7-5.78-1.7-8.84c0-2.266,0.595-4.561,1.785-6.885c1.19-2.322,2.805-4.447,4.845-6.375
	c2.04-1.926,4.476-3.485,7.31-4.675c2.832-1.19,5.892-1.785,9.18-1.785c3.286,0,6.346,0.568,9.18,1.7
	c2.832,1.134,5.296,2.834,7.395,5.1c2.096,2.269,3.74,5.159,4.93,8.67c1.19,3.514,1.785,7.708,1.785,12.58h-14.96v-2.55
	c0-1.246-0.114-2.55-0.34-3.91c-0.228-1.36-0.653-2.577-1.275-3.655c-0.624-1.076-1.474-1.982-2.55-2.72
	c-1.079-0.736-2.465-1.105-4.165-1.105c-2.269,0-4.024,0.709-5.27,2.125c-1.249,1.418-1.87,2.805-1.87,4.165
	c0,0.908,0.425,2.125,1.275,3.655c0.85,1.53,1.727,2.864,2.635,3.995L54.328,129.75z M127.427,77.051v14.28v2.38v47.26
	c0,3.629-0.68,6.999-2.04,10.115c-1.36,3.118-3.23,5.838-5.61,8.16c-2.38,2.324-5.158,4.164-8.33,5.524
	c-3.174,1.36-6.518,2.04-10.03,2.04c-3.628,0-6.999-0.68-10.115-2.04c-3.118-1.36-5.838-3.2-8.16-5.524
	c-2.324-2.322-4.165-5.042-5.525-8.16c-1.36-3.116-2.04-6.486-2.04-10.115v-42.16v-7.48v-14.28h17v14.28v7.48v41.48
	c0,2.608,0.876,4.79,2.635,6.545c1.756,1.758,3.881,2.635,6.375,2.635c2.606,0,4.787-0.877,6.545-2.635
	c1.756-1.756,2.635-3.937,2.635-6.545V93.71v-2.38v-14.28H127.427z M174.516,90.809c-2.04,0-6.149,0.777-8.245,1.967
	c-2.098,1.19-3.429,2.694-3.995,4.505v69.53h-16.66v-89.59h16.66v2.21c3.852-1.926,7.932-2.89,12.24-2.89 M216.676,76.541h12.07
	v14.28h-12.07v75.82h-16.32V90.82l-12.07-0.001V76.541h12.07v-18.02h0.17c0.226-3.286,1.02-6.346,2.38-9.18
	c1.36-2.832,3.145-5.326,5.355-7.48c2.21-2.152,4.787-3.825,7.735-5.015c2.946-1.19,6.062-1.785,9.35-1.785
	c0.566,0,1.131,0.029,1.7,0.085c0.565,0.059,1.131,0.144,1.7,0.255v15.47c-0.568-0.226-1.105-0.396-1.615-0.51
	c-0.51-0.112-1.049-0.17-1.615-0.17c-2.38,0-4.42,0.879-6.12,2.635c-1.7,1.758-2.55,3.825-2.55,6.205v1.19h-0.17V76.541z
	 M262.828,164.686c-1.984-1.301-3.628-2.891-4.93-4.76c-1.305-1.87-2.324-3.91-3.061-6.12c-0.738-2.21-1.274-4.221-1.614-6.035
	l-9.01-70.72h17l3.4,24.99l4.42,39.61c0.111,1.814,0.281,3.119,0.51,3.91c0.226,0.68,0.452,0.85,0.681,0.51
	c0.226-0.34,0.565-1.811,1.02-4.42l4.93-39.61l3.4-24.99h16.66l-8.16,65.11v-0.17c-0.34,4.308-1.134,8.218-2.38,11.73
	c-1.135,2.948-2.749,5.725-4.845,8.33c-2.099,2.608-5.074,4.08-8.926,4.42c-0.34,0.114-0.85,0.17-1.529,0.17h-0.17
	C267.274,166.641,264.81,165.99,262.828,164.686z M332.248,59.967c-2.607-0.092-4.727-1.044-6.363-2.861
	c-1.637-1.815-2.411-3.969-2.323-6.461c0.088-2.49,0.954-4.586,2.604-6.287c1.646-1.699,3.772-2.503,6.38-2.412
	c2.489,0.088,4.641,1.044,6.447,2.865c1.807,1.823,2.666,3.98,2.578,6.47c-0.088,2.493-1.042,4.585-2.858,6.278
	C336.892,59.254,334.737,60.055,332.248,59.967z M323.425,73.774l16.479,0.583l-3.511,89.692l-16.479-0.583L323.425,73.774z
	 M420.161,76.99c1.294,1.735,2.453,3.681,3.479,5.842c0.821,1.913,1.549,4.157,2.188,6.73c0.633,2.576,0.779,5.499,0.431,8.766
	l-4.841,45.302l-0.253,2.366l-1.516,14.199l-16.566-1.77l-0.338-0.036l1.518-14.198l0.794-7.438l4.406-41.246
	c0.132-1.239-0.079-2.458-0.635-3.658c-0.556-1.197-1.325-2.279-2.305-3.238c-0.98-0.959-2.122-1.736-3.426-2.333
	c-1.305-0.593-2.577-0.958-3.815-1.091c-1.242-0.132-2.646-0.053-4.215,0.233c-1.568,0.29-3.074,0.783-4.519,1.483
	c-1.44,0.702-2.676,1.569-3.696,2.597c-1.024,1.031-1.6,2.167-1.732,3.406l-4.947,46.317l-0.254,2.367l-1.516,14.2l-0.17-0.02
	l-12.338-1.317l-4.06-0.435l9.535-89.251l16.399,1.751l-0.507,4.733c2.41-1.223,4.984-2.118,7.723-2.68
	c2.738-0.563,5.517-0.693,8.335-0.392c3.382,0.361,6.526,1.325,9.437,2.888C415.668,72.636,418.135,74.609,420.161,76.99z
	 M457.416,99.194l2.353-7.814l4.166-13.836l3.725-12.372l1.029-3.418c0.914-3.037,2.404-5.726,4.469-8.064
	c2.063-2.336,4.467-4.217,7.204-5.643c2.735-1.423,5.686-2.283,8.852-2.572c3.164-0.29,6.374,0.055,9.631,1.035
	c4.013,1.208,7.589,3.292,10.724,6.247l12.645-41.998l15.79,4.753l-37.884,125.831l-15.79-4.753l0.637-2.116
	c-4.245,0.735-8.376,0.497-12.39-0.712c-3.149-0.948-5.961-2.415-8.439-4.404c-2.479-1.99-4.473-4.304-5.984-6.951
	c-1.513-2.644-2.494-5.483-2.939-8.519c-0.447-3.034-0.27-6.087,0.537-9.159L457.416,99.194z M470.579,109.726
	c-0.653,2.171-0.395,4.26,0.775,6.269c1.171,2.012,2.896,3.358,5.175,4.044c1.083,0.326,2.308,0.489,3.67,0.483
	c1.361-0.003,2.639-0.209,3.827-0.623c1.19-0.411,2.257-1.007,3.201-1.788c0.947-0.781,1.582-1.712,1.909-2.799l12.889-42.812
	c0.327-1.083,0.313-2.214-0.045-3.387c-0.357-1.172-0.918-2.257-1.683-3.258c-0.764-0.999-1.707-1.904-2.822-2.714
	c-1.119-0.808-2.221-1.378-3.304-1.705c-2.278-0.686-4.469-0.486-6.57,0.596c-2.103,1.084-3.479,2.711-4.133,4.881L470.579,109.726z
	"/>
</svg>
